<svg id="_x35_0" enable-background="new 0 0 512 512" height="512" viewBox="0 0 512 512" width="512" xmlns="http://www.w3.org/2000/svg"><g><circle cx="256" cy="256" fill="#fa4654" r="256"/><g><path d="m254.581 464.129c-2.548-.243-4.534-2.396-4.519-5.005.015-2.762 2.267-4.988 5.028-4.972 9.751.054 19.571-.618 29.188-1.997 2.73-.394 5.267 1.505 5.659 4.239.393 2.733-1.506 5.267-4.239 5.659-10.104 1.45-20.421 2.156-30.665 2.098-.152 0-.303-.008-.452-.022zm-44.637-5.157c-.215-.021-.43-.056-.646-.105-9.982-2.283-19.865-5.329-29.375-9.055-2.571-1.008-3.839-3.908-2.832-6.479 1.007-2.57 3.908-3.838 6.479-2.832 9.05 3.546 18.456 6.444 27.956 8.617 2.692.616 4.375 3.297 3.76 5.989-.565 2.476-2.88 4.1-5.342 3.865zm118.087-8.196c-1.831-.175-3.496-1.357-4.198-3.19-.988-2.578.302-5.47 2.881-6.458 9.084-3.479 17.995-7.673 26.484-12.464 2.404-1.357 5.455-.508 6.812 1.898 1.357 2.404.508 5.454-1.897 6.812-8.918 5.032-18.278 9.437-27.823 13.093-.745.284-1.516.379-2.259.309zm-186.528-21.596c-.809-.077-1.61-.353-2.329-.841-8.45-5.737-16.55-12.159-24.078-19.088-2.032-1.869-2.163-5.033-.293-7.065 1.87-2.033 5.034-2.164 7.065-.292 7.167 6.596 14.879 12.71 22.922 18.171 2.285 1.551 2.879 4.661 1.328 6.946-1.062 1.564-2.856 2.336-4.615 2.169zm250.154-17.454c-1.201-.115-2.363-.661-3.235-1.627-1.85-2.049-1.689-5.211.361-7.062 7.23-6.526 14.033-13.642 20.219-21.148 1.756-2.133 4.908-2.434 7.038-.679 2.131 1.756 2.435 4.908.679 7.039-6.497 7.884-13.642 15.357-21.236 22.212-1.083.977-2.479 1.394-3.826 1.265zm-303.168-35.072c-1.415-.135-2.763-.869-3.636-2.128-5.833-8.411-11.086-17.323-15.613-26.484-1.223-2.476-.208-5.474 2.267-6.698 2.477-1.222 5.475-.207 6.698 2.267 4.31 8.722 9.311 17.206 14.865 25.215 1.574 2.269 1.01 5.384-1.259 6.958-1.009.701-2.187.978-3.322.87zm348.458-24.23c-.602-.057-1.203-.226-1.775-.514-2.466-1.244-3.457-4.25-2.213-6.716 4.382-8.69 8.148-17.784 11.193-27.028.864-2.624 3.688-4.055 6.313-3.185 2.623.863 4.049 3.69 3.185 6.312-3.199 9.716-7.157 19.272-11.762 28.404-.956 1.893-2.95 2.917-4.941 2.727zm-379.02-43.886c-2.066-.197-3.873-1.677-4.386-3.808-2.392-9.938-4.058-20.146-4.951-30.341-.241-2.75 1.794-5.176 4.544-5.417 2.75-.24 5.176 1.794 5.418 4.545.85 9.702 2.435 19.416 4.712 28.872.646 2.685-1.006 5.386-3.691 6.031-.554.134-1.109.169-1.646.118zm399.747-27.814c-.005-.001-.011-.001-.016-.002-2.748-.271-4.756-2.719-4.485-5.466l.043-.445c.928-9.728 1.146-19.572.648-29.256-.142-2.758 1.979-5.109 4.736-5.251 2.757-.153 5.108 1.978 5.25 4.736.524 10.172.295 20.507-.68 30.721l-.046.476c-.27 2.743-2.709 4.749-5.45 4.487zm-403.539-46.726c-.063-.006-.126-.013-.189-.022-2.737-.364-4.66-2.879-4.296-5.616 1.355-10.166 3.469-20.288 6.284-30.083.763-2.653 3.533-4.181 6.187-3.425 2.654.762 4.187 3.533 3.425 6.186-2.68 9.326-4.693 18.962-5.983 28.642-.357 2.675-2.765 4.572-5.428 4.318zm396.956-28.087c-1.995-.19-3.763-1.577-4.339-3.623-2.639-9.365-6.006-18.619-10.008-27.508-1.134-2.518-.012-5.478 2.506-6.612 2.52-1.133 5.478-.01 6.612 2.507 4.205 9.337 7.744 19.061 10.516 28.902.749 2.657-.799 5.419-3.457 6.168-.614.174-1.232.223-1.83.166zm-373.681-42.824c-.659-.063-1.316-.258-1.933-.597-2.42-1.332-3.301-4.371-1.97-6.791 4.922-8.945 10.562-17.606 16.765-25.744 1.674-2.196 4.81-2.619 7.008-.945 2.196 1.673 2.619 4.811.946 7.007-5.903 7.746-11.272 15.99-15.956 24.502-.994 1.803-2.934 2.752-4.86 2.568zm340.545-24.081c-1.351-.129-2.645-.804-3.525-1.975-5.849-7.788-12.324-15.205-19.246-22.046-1.964-1.941-1.982-5.107-.041-7.071 1.94-1.964 5.107-1.984 7.071-.041 7.269 7.185 14.069 14.974 20.212 23.152 1.658 2.208 1.213 5.342-.995 7.001-1.037.779-2.279 1.094-3.476.98zm-293.163-33.567c-1.26-.12-2.475-.716-3.353-1.761-1.776-2.114-1.503-5.268.612-7.045 7.831-6.579 16.215-12.632 24.921-17.991 2.352-1.449 5.432-.715 6.879 1.636 1.448 2.351.715 5.431-1.637 6.879-8.289 5.103-16.274 10.868-23.731 17.133-1.068.898-2.403 1.272-3.691 1.149zm238.179-16.906c-.747-.071-1.489-.313-2.169-.737-8.261-5.159-16.975-9.738-25.898-13.61-2.534-1.099-3.696-4.044-2.597-6.577s4.045-3.695 6.577-2.596c9.378 4.069 18.534 8.881 27.214 14.301 2.342 1.462 3.056 4.547 1.593 6.889-1.038 1.663-2.893 2.504-4.72 2.33zm-173.195-19.845c-1.895-.181-3.602-1.441-4.258-3.359-.895-2.612.498-5.456 3.111-6.349 9.686-3.317 19.7-5.932 29.764-7.774 2.716-.495 5.321 1.302 5.818 4.018.497 2.717-1.302 5.321-4.019 5.818-9.576 1.753-19.106 4.242-28.324 7.397-.694.239-1.405.315-2.092.249zm103.685-7.303c-.153-.015-.306-.036-.459-.064-9.525-1.801-19.343-2.925-29.081-3.325-2.764-.13-4.904-2.442-4.79-5.202.114-2.759 2.443-4.903 5.202-4.79 10.22.421 20.526 1.6 30.526 3.491 2.714.512 4.498 3.128 3.985 5.841-.484 2.559-2.84 4.292-5.383 4.049z" fill="#ea7589"/></g><g><g><path d="m224.322 106.369-.382-3.056c-.476-3.834-3.788-7.077-7.803-7.236l-10.525-.408-4.991-.182c-.884-1.905-1.928-3.72-3.085-5.444l.862-1.588 3.902-7.123 2.677-4.9c.385-.703.657-1.452.794-2.223.635-3.04-.544-6.284-2.994-8.189l-4.787-3.765c-3.063-2.359-7.69-2.314-10.639.431l-7.645 7.077-3.743 3.448c-1.974-.703-3.992-1.247-6.034-1.656l-4.378-14.903c-.204-.658-.476-1.27-.816-1.838v-.023c-.703-1.134-1.656-2.087-2.768-2.767 0 0-.022 0-.022-.023h-.023c-1.565-.93-3.425-1.384-5.285-1.157l-6.034.748c-.524.061-1.037.183-1.537.349l-.27-4.961-4.534 9.054.018-.009c-.534 1.023-.868 2.163-.914 3.371l-.34 8.779-.159 3.811-.114 2.926c-1.882.885-3.697 1.928-5.444 3.085l-13.611-7.441c-1.769-.975-3.811-1.18-5.694-.771-1.778.417-3.417 1.396-4.591 2.835l-.22-2.697-4.287 8.632c-.112.199-.208.402-.302.609l-.189.38.035-.008c-1.13 2.841-.684 6.279 1.501 8.647l8.938 9.664 1.61 1.747c-.703 1.951-1.27 3.97-1.679 6.011l-14.656 4.312-.615-4.868-4.661 9.312.032-.019c-.676 1.406-.985 2.983-.787 4.555l.749 6.034c.159 1.384.703 2.7 1.52 3.811.499.681 1.089 1.293 1.792 1.792 1.27.953 2.836 1.565 4.491 1.633l15.494.613c.839 1.769 1.792 3.47 2.858 5.104.068.113.158.227.227.34l-3.652 6.714-1.769 3.244-1.997 3.652c-1.928 3.539-.862 8.03 2.2 10.412l4.787 3.743c3.062 2.382 7.69 2.314 10.639-.408l.908-.862 10.457-9.664c1.974.726 3.992 1.248 6.057 1.656l4.378 14.881c1.134 3.856 5.059 6.284 8.915 5.807l6.034-.749c2.747-.341 5.17-2.151 6.394-4.62l.002.046 4.432-8.863-3.426 1.484.425-11.344c1.497-.703 2.926-1.474 4.287-2.337.385-.249.771-.499 1.157-.748l13.633 7.441c2.223 1.202 4.854 1.225 7.077.295h.023c1.293-.544 2.45-1.384 3.312-2.495l3.743-4.809c.347-.446.628-.932.872-1.436l.002.029 4.747-9.548-4.576 2.603c-.348-.822-.822-1.601-1.453-2.288l-10.549-11.387c.703-1.974 1.27-3.97 1.679-6.034l4.469-1.315 10.412-3.04c2.268-.681 4.038-2.314 5.013-4.332l4.361-8.703zm-37.789 9.262v.023c-.068 1.679-.34 3.335-.771 4.945-.862 3.244-2.382 6.306-4.491 9.006-.5.658-1.044 1.27-1.588 1.86-4.015 4.242-9.323 6.941-15.176 7.667-6.669.817-13.271-.998-18.578-5.149-5.308-4.128-8.688-10.072-9.505-16.763-.84-6.669.998-13.271 5.126-18.578.023-.023.045-.045.068-.068.749-.976 1.566-1.883 2.427-2.722 3.902-3.698 8.847-6.057 14.268-6.714.522-.068 1.043-.114 1.565-.159.522-.023 1.066-.045 1.588-.045 5.558 0 10.957 1.86 15.425 5.331 2.654 2.064 4.832 4.605 6.443 7.44 1.611 2.836 2.654 5.989 3.062 9.323.205 1.54.251 3.083.137 4.603z" fill="#a583bb"/><path d="m229.225 100.296-.749-6.057c-.476-3.834-3.788-7.077-7.803-7.236l-15.516-.59c-.816-1.769-1.792-3.471-2.858-5.081-.068-.113-.136-.249-.227-.363l3.697-6.76 3.743-6.851c1.928-3.539.862-8.03-2.2-10.412l-4.787-3.765c-3.063-2.359-7.69-2.314-10.639.431l-11.388 10.526c-1.974-.703-3.992-1.247-6.034-1.656l-4.378-14.903c-1.134-3.856-5.059-6.284-8.915-5.807l-6.034.748c-.749.091-1.452.272-2.133.567-2.858 1.202-4.968 3.992-5.104 7.236l-.09 2.155-.522 13.361c-1.452.68-2.88 1.475-4.264 2.337-.386.227-.794.499-1.18.748l-4.469-2.45-.136-.136-9.006-4.854c-3.516-1.928-8.03-.862-10.412 2.2l-2.586 3.335-1.157 1.475c-1.202 1.542-1.792 3.493-1.724 5.444.091 1.883.794 3.721 2.132 5.172l10.549 11.41c-.703 1.951-1.27 3.97-1.679 6.011l-4.468 1.316-10.412 3.063c-3.856 1.134-6.284 5.081-5.807 8.915l.068.613.681 5.421c.476 3.856 3.788 7.078 7.803 7.236l15.494.613c.907 1.883 1.928 3.698 3.085 5.444l-4.763 8.733-2.654 4.877c-.385.703-.635 1.429-.771 2.178-.454 2.087-.045 4.287 1.066 6.079l.023.045c.499.794 1.134 1.52 1.882 2.11l1.134.885 3.652 2.858c3.062 2.382 7.69 2.314 10.639-.408l11.365-10.526c1.974.726 3.992 1.248 6.057 1.656l4.378 14.881c1.134 3.856 5.059 6.284 8.915 5.807l6.034-.749c.976-.136 1.928-.431 2.79-.884 2.495-1.316 4.333-3.925 4.447-6.919l.34-8.756.25-6.737c1.769-.839 3.448-1.769 5.059-2.836.136-.091.249-.159.385-.249l13.633 7.441c3.516 1.905 8.03.839 10.412-2.2l.93-1.18.499-.658 2.314-2.971c2.382-3.063 2.314-7.69-.408-10.639l-8.938-9.663-1.61-1.724c.703-1.974 1.27-3.97 1.679-6.034l11.569-3.38h.023l3.289-.975c.408-.114.817-.272 1.202-.454 3.152-1.545 5.034-5.038 4.603-8.464zm-60.181 29.762c-6.669.817-13.271-.998-18.578-5.149-5.308-4.128-8.688-10.072-9.505-16.763-.409-3.266-.182-6.51.657-9.573.341-1.316.794-2.586 1.339-3.811.816-1.837 1.86-3.584 3.13-5.195 2.155-2.768 4.787-4.991 7.758-6.624 2.767-1.52 5.807-2.495 9.006-2.881 1.043-.136 2.109-.204 3.153-.204 5.558 0 10.957 1.86 15.425 5.331 2.654 2.064 4.832 4.605 6.443 7.44 1.611 2.836 2.654 5.989 3.062 9.323.658 5.331-.363 10.593-2.903 15.198-.635 1.18-1.384 2.314-2.223 3.38-.023.023-.045.045-.045.068-2.564 3.266-5.807 5.785-9.505 7.441-2.269 1.021-4.697 1.701-7.214 2.019z" fill="#c2aacf"/><g fill="#f0dae2"><path d="m153.845 82.942c-2.972 1.633-5.603 3.856-7.758 6.624-1.27 1.61-2.314 3.357-3.13 5.195l-24.953-24.975-2.767-2.767 2.586-3.335c2.382-3.062 6.896-4.128 10.412-2.2l9.006 4.854.136.136 5.489 5.512z"/><path d="m215.501 144.598-.499.658-.93 1.18c-2.382 3.04-6.896 4.106-10.412 2.2l-13.633-7.441c-.136.091-.249.159-.385.249l-9.959-9.981-3.425-3.425c3.698-1.656 6.942-4.174 9.505-7.441 0-.023.022-.045.045-.068.839-1.066 1.588-2.2 2.223-3.38l26.79 26.768z"/><path d="m224.62 108.757c-.385.181-.794.34-1.202.454l-3.289.975h-.023l-14.495-14.518-7.214-7.214-18.692-18.692-14.971-14.949v-.023l-2.768-2.767s-.022 0-.022-.023h-.023l-8.915-8.915c.681-.295 1.384-.476 2.133-.567l6.034-.748c3.856-.476 7.781 1.951 8.915 5.807l4.378 14.903c2.041.408 4.06.953 6.034 1.656l11.388-10.526c2.949-2.745 7.576-2.79 10.639-.431l4.787 3.765c3.062 2.382 4.128 6.873 2.2 10.412l-3.743 6.851c-.136.771-.408 1.52-.794 2.223l-2.677 4.9c1.066 1.61 2.042 3.312 2.858 5.081l15.516.59c4.015.159 7.327 3.403 7.803 7.236l.749 6.057c.43 3.428-1.452 6.921-4.606 8.463z"/></g></g><g><path d="m334.001 118.94-.306-2.449c-.382-3.072-3.035-5.671-6.253-5.799l-8.434-.327-3.999-.146c-.709-1.527-1.545-2.981-2.472-4.362l.691-1.273 3.126-5.708 2.145-3.926c.309-.564.527-1.163.636-1.781.509-2.436-.436-5.035-2.399-6.562l-3.836-3.017c-2.454-1.89-6.162-1.854-8.525.345l-6.126 5.671-2.999 2.763c-1.582-.563-3.199-1-4.835-1.327l-3.508-11.942c-.163-.527-.382-1.018-.654-1.472v-.018c-.564-.909-1.327-1.672-2.218-2.218 0 0-.018 0-.018-.018h-.019c-1.254-.745-2.744-1.109-4.235-.927l-4.835.6c-.42.049-.831.147-1.231.279l-.216-3.975-3.633 7.255.014-.008c-.428.82-.695 1.733-.732 2.701l-.272 7.035-.127 3.054-.091 2.345c-1.508.709-2.963 1.545-4.362 2.472l-10.906-5.962c-1.418-.781-3.054-.945-4.562-.618-1.425.334-2.738 1.119-3.678 2.271l-.177-2.161-3.435 6.917c-.09.159-.167.322-.242.488l-.151.304.028-.007c-.906 2.276-.548 5.032 1.203 6.929l7.162 7.743 1.29 1.4c-.564 1.563-1.018 3.181-1.346 4.817l-11.744 3.455-.493-3.901-3.735 7.462.025-.015c-.542 1.126-.789 2.391-.631 3.65l.6 4.835c.127 1.109.563 2.163 1.218 3.054.4.545.872 1.036 1.436 1.436 1.018.764 2.272 1.254 3.599 1.309l12.415.491c.672 1.418 1.436 2.781 2.29 4.09.054.091.127.182.182.273l-2.926 5.38-1.418 2.599-1.6 2.927c-1.545 2.836-.691 6.435 1.763 8.343l3.836 2.999c2.454 1.909 6.162 1.854 8.525-.327l.727-.691 8.379-7.743c1.582.582 3.199 1 4.853 1.327l3.508 11.924c.909 3.09 4.053 5.035 7.143 4.653l4.835-.6c2.202-.273 4.143-1.724 5.123-3.702l.001.037 3.552-7.102-2.745 1.19.34-9.09c1.2-.563 2.345-1.181 3.435-1.872.309-.2.618-.4.927-.6l10.924 5.962c1.781.963 3.89.981 5.671.236h.019c1.036-.436 1.963-1.109 2.654-1.999l2.999-3.854c.278-.357.503-.746.699-1.15l.002.024 3.804-7.651-3.667 2.086c-.279-.659-.659-1.283-1.164-1.833l-8.453-9.125c.564-1.582 1.018-3.181 1.345-4.835l3.581-1.054 8.343-2.436c1.818-.545 3.236-1.854 4.017-3.472l3.495-6.974zm-30.28 7.421v.018c-.055 1.345-.272 2.672-.618 3.962-.691 2.599-1.909 5.053-3.599 7.216-.4.527-.837 1.018-1.273 1.491-3.217 3.399-7.471 5.562-12.16 6.144-5.344.655-10.634-.8-14.887-4.126-4.254-3.308-6.962-8.071-7.616-13.433-.673-5.344.8-10.634 4.108-14.887.019-.018.036-.036.055-.055.6-.782 1.255-1.509 1.945-2.181 3.126-2.963 7.089-4.853 11.433-5.38.418-.055.836-.091 1.254-.127.418-.018.854-.036 1.272-.036 4.453 0 8.78 1.49 12.361 4.272 2.127 1.654 3.872 3.69 5.162 5.962s2.127 4.799 2.454 7.471c.163 1.235.2 2.471.109 3.689z" fill="#a583bb"/><path d="m337.93 114.074-.6-4.853c-.382-3.072-3.035-5.671-6.253-5.799l-12.433-.473c-.654-1.418-1.436-2.781-2.29-4.072-.055-.091-.109-.2-.182-.291l2.963-5.417 2.999-5.49c1.545-2.836.69-6.435-1.763-8.343l-3.836-3.017c-2.454-1.89-6.162-1.854-8.525.345l-9.125 8.434c-1.582-.563-3.199-1-4.835-1.327l-3.508-11.942c-.909-3.09-4.053-5.035-7.143-4.653l-4.835.6c-.6.073-1.164.218-1.709.454-2.29.963-3.981 3.199-4.09 5.799l-.072 1.727-.418 10.706c-1.163.545-2.308 1.182-3.417 1.872-.309.182-.636.4-.945.6l-3.581-1.963-.109-.109-7.216-3.89c-2.818-1.545-6.435-.691-8.343 1.763l-2.072 2.672-.927 1.182c-.963 1.236-1.436 2.799-1.381 4.362.073 1.509.636 2.981 1.709 4.144l8.453 9.143c-.564 1.563-1.018 3.181-1.346 4.817l-3.58 1.054-8.343 2.454c-3.09.909-5.035 4.072-4.653 7.143l.055.491.545 4.344c.382 3.09 3.035 5.671 6.253 5.799l12.415.491c.727 1.509 1.545 2.963 2.472 4.363l-3.817 6.998-2.127 3.908c-.309.563-.509 1.145-.618 1.745-.363 1.672-.036 3.435.854 4.871l.018.036c.4.636.909 1.218 1.508 1.691l.909.709 2.927 2.29c2.454 1.909 6.162 1.854 8.525-.327l9.107-8.434c1.582.582 3.199 1 4.853 1.327l3.508 11.924c.909 3.09 4.053 5.035 7.143 4.653l4.835-.6c.782-.109 1.545-.345 2.236-.709 2-1.054 3.472-3.145 3.563-5.544l.272-7.017.2-5.399c1.417-.672 2.763-1.418 4.053-2.272.109-.073.2-.127.309-.2l10.924 5.962c2.818 1.527 6.435.673 8.343-1.763l.745-.945.4-.527 1.854-2.381c1.909-2.454 1.854-6.162-.327-8.525l-7.162-7.743-1.291-1.381c.564-1.582 1.018-3.181 1.345-4.835l9.27-2.708h.018l2.636-.781c.327-.091.655-.218.963-.363 2.527-1.236 4.035-4.036 3.69-6.78zm-48.224 23.848c-5.344.655-10.634-.8-14.887-4.126-4.254-3.308-6.962-8.071-7.616-13.433-.328-2.617-.146-5.217.527-7.671.273-1.054.636-2.072 1.073-3.054.654-1.472 1.491-2.872 2.508-4.162 1.727-2.218 3.836-3.999 6.217-5.308 2.218-1.218 4.653-1.999 7.216-2.308.836-.109 1.69-.164 2.526-.164 4.453 0 8.78 1.49 12.361 4.272 2.127 1.654 3.872 3.69 5.162 5.962s2.127 4.799 2.454 7.471c.527 4.272-.291 8.489-2.326 12.179-.509.945-1.109 1.854-1.781 2.708-.019.018-.036.036-.036.055-2.054 2.617-4.653 4.635-7.617 5.962-1.818.817-3.763 1.362-5.781 1.617z" fill="#c2aacf"/><g fill="#f0dae2"><path d="m277.528 100.168c-2.381 1.309-4.49 3.09-6.217 5.308-1.018 1.291-1.854 2.69-2.508 4.162l-19.995-20.013-2.218-2.218 2.072-2.672c1.909-2.454 5.526-3.308 8.343-1.763l7.216 3.89.109.109 4.399 4.417z"/><path d="m326.933 149.573-.4.527-.745.945c-1.909 2.436-5.526 3.29-8.343 1.763l-10.924-5.962c-.109.073-.2.127-.309.2l-7.98-7.998-2.745-2.745c2.963-1.327 5.562-3.345 7.617-5.962 0-.018.018-.036.036-.055.672-.854 1.272-1.763 1.781-2.708l21.467 21.449z"/><path d="m334.24 120.854c-.309.145-.636.272-.963.363l-2.636.781h-.018l-11.615-11.633-5.781-5.78-14.978-14.978-11.997-11.979v-.018l-2.218-2.218s-.018 0-.018-.018h-.019l-7.143-7.144c.545-.236 1.109-.382 1.709-.454l4.835-.6c3.09-.382 6.235 1.563 7.143 4.653l3.508 11.942c1.636.327 3.253.764 4.835 1.327l9.125-8.434c2.363-2.199 6.071-2.236 8.525-.345l3.836 3.017c2.454 1.909 3.308 5.508 1.763 8.343l-2.999 5.49c-.109.618-.327 1.218-.636 1.781l-2.145 3.926c.854 1.291 1.636 2.654 2.29 4.072l12.433.473c3.217.127 5.871 2.727 6.253 5.799l.6 4.853c.346 2.745-1.162 5.545-3.689 6.781z"/></g></g><g><path d="m285.471 254.335-.263-4.066c-.326-5.1-4.442-9.646-9.732-10.173l-13.866-1.371-6.576-.635c-1.017-2.586-2.252-5.065-3.643-7.433l1.264-2.029 5.716-9.097 3.923-6.258c.565-.898.983-1.865 1.224-2.873 1.079-3.964-.222-8.341-3.306-11.051l-6.023-5.351c-3.858-3.358-9.971-3.664-14.083-.272l-10.655 8.741-5.215 4.257c-2.551-1.085-5.173-1.963-7.837-2.664l-4.603-20.026c-.217-.885-.528-1.715-.933-2.491l.002-.03c-.839-1.553-2.022-2.887-3.436-3.873 0 0-.029-.002-.027-.032l-.031-.002c-1.993-1.352-4.413-2.098-6.887-1.946l-8.027.511c-.697.039-1.384.16-2.057.339l.036-6.572-6.703 11.597.024-.011c-.787 1.309-1.317 2.787-1.473 4.379l-1.143 11.566-.511 5.02-.381 3.855c-2.556 1.019-5.035 2.254-7.433 3.643l-17.384-10.902c-2.259-1.428-4.939-1.859-7.458-1.469-2.381.41-4.623 1.574-6.286 3.38l-.078-3.578-6.344 11.059c-.163.253-.307.514-.447.78l-.279.487.047-.008c-1.717 3.662-1.4 8.238 1.299 11.537l11.038 13.468 1.989 2.434c-1.083 2.52-1.992 5.142-2.693 7.805l-19.695 4.535-.427-6.477-6.892 11.928.043-.022c-1.004 1.803-1.536 3.862-1.399 5.953l.512 8.027c.1 1.84.715 3.62 1.705 5.153.605.938 1.336 1.793 2.225 2.508 1.602 1.359 3.621 2.291 5.802 2.512l20.411 2.034c.968 2.403 2.091 4.725 3.371 6.966.08.155.191.312.272.467l-5.353 8.578-2.593 4.143-2.925 4.665c-2.826 4.52-1.773 10.536 2.082 13.923l6.025 5.321c3.855 3.388 9.971 3.664 14.081.302l1.267-1.067 14.573-11.934c2.549 1.115 5.173 1.963 7.867 2.666l4.605 19.997c1.193 5.182 6.183 8.698 11.313 8.374l8.027-.512c3.655-.233 6.998-2.432 8.809-5.596l-.001.061 6.554-11.353-4.641 1.689 1.458-14.946c2.032-.81 3.981-1.715 5.846-2.746.529-.299 1.058-.598 1.587-.897l17.414 10.904c2.84 1.764 6.313 2.001 9.322.949l.031.002c1.75-.617 3.344-1.633 4.571-3.033l5.323-6.054c.494-.561.903-1.18 1.265-1.827l.001.039 7.024-12.233-6.249 3.076c-.395-1.113-.959-2.179-1.738-3.136l-13.029-15.871c1.085-2.551 1.992-5.142 2.694-7.836l6.005-1.383 13.99-3.191c3.049-.719 5.515-2.736 6.963-5.325l6.447-11.148zm-50.633 9.241-.002.03c-.223 2.211-.713 4.376-1.409 6.469-1.395 4.215-3.644 8.139-6.643 11.537-.712.829-1.479 1.595-2.245 2.331-5.638 5.284-12.86 8.429-20.646 8.924-8.871.551-17.445-2.367-24.126-8.269-6.683-5.871-10.676-13.987-11.225-22.888-.581-8.873 2.367-17.445 8.238-24.127.033-.028.064-.056.095-.085 1.066-1.229 2.216-2.363 3.421-3.403 5.445-4.574 12.161-7.298 19.373-7.738.694-.049 1.387-.067 2.079-.086.691.011 1.411.024 2.1.066 7.339.44 14.321 3.323 19.948 8.259 3.341 2.936 6.017 6.463 7.919 10.334 1.902 3.872 3.031 8.118 3.306 12.554.15 2.053.088 4.094-.183 6.092z" fill="#a583bb"/><path d="m292.427 246.703-.51-8.057c-.326-5.1-4.442-9.646-9.732-10.173l-20.443-2.006c-.938-2.401-2.092-4.725-3.372-6.936-.081-.155-.159-.34-.27-.497l5.417-8.634 5.485-8.75c2.826-4.521 1.773-10.536-2.082-13.924l-6.023-5.351c-3.858-3.358-9.971-3.664-14.083-.272l-15.87 12.998c-2.551-1.085-5.173-1.963-7.837-2.664l-4.603-20.026c-1.193-5.182-6.183-8.698-11.313-8.374l-8.027.511c-.996.061-1.939.245-2.861.58-3.869 1.362-6.876 4.879-7.312 9.152l-.29 2.838-1.746 17.602c-1.971.784-3.92 1.719-5.816 2.748-.528.269-1.088.596-1.617.895l-5.707-3.588-.169-.191-11.508-7.123c-4.491-2.824-10.536-1.773-13.924 2.082l-3.678 4.199-1.644 1.856c-1.71 1.942-2.643 4.471-2.707 7.053-.029 2.494.754 4.976 2.407 6.998l13.027 15.902c-1.083 2.52-1.992 5.142-2.693 7.805l-6.004 1.384-13.992 3.221c-5.182 1.193-8.699 6.213-8.374 11.313l.042.814.47 7.213c.324 5.13 4.442 9.646 9.732 10.173l20.411 2.034c1.049 2.558 2.253 5.035 3.643 7.433l-6.981 11.156-3.891 6.23c-.565.898-.952 1.837-1.19 2.815-.764 2.72-.399 5.658.927 8.112l.026.062c.596 1.088 1.378 2.097 2.319 2.935l1.428 1.258 4.597 4.063c3.855 3.388 9.971 3.664 14.081.302l15.84-13c2.549 1.115 5.173 1.963 7.867 2.666l4.605 19.997c1.193 5.182 6.183 8.698 11.313 8.374l8.027-.512c1.299-.103 2.581-.416 3.754-.947 3.399-1.54 6.032-4.84 6.419-8.785l1.142-11.536.863-8.877c2.402-.968 4.693-2.064 6.904-3.344.187-.109.342-.19.529-.299l17.414 10.904c4.492 2.794 10.538 1.743 13.924-2.082l1.321-1.484.711-.829 3.29-3.741c3.388-3.856 3.664-9.972.302-14.081l-11.038-13.467-1.99-2.404c1.085-2.551 1.992-5.142 2.694-7.836l15.545-3.548.03.002 4.42-1.028c.548-.118 1.1-.295 1.624-.504 4.283-1.789 7.045-6.253 6.747-10.81zm-81.825 34.541c-8.871.551-17.445-2.367-24.126-8.269-6.683-5.871-10.676-13.987-11.225-22.888-.281-4.346.275-8.611 1.625-12.589.554-1.711 1.253-3.352 2.069-4.927 1.223-2.362 2.74-4.586 4.544-6.612 3.065-3.484 6.716-6.212 10.769-8.134 3.775-1.788 7.865-2.835 12.12-3.092 1.389-.097 2.802-.103 4.18-.02 7.339.44 14.321 3.323 19.948 8.259 3.341 2.936 6.017 6.463 7.919 10.334s3.031 8.118 3.306 12.554c.447 7.091-1.317 13.96-5.036 19.84-.932 1.507-2.011 2.946-3.203 4.287-.033.028-.064.056-.065.086-3.644 4.111-8.126 7.179-13.14 9.074-3.076 1.17-6.335 1.877-9.685 2.097z" fill="#c2aacf"/><g fill="#f0dae2"><path d="m194.259 217.825c-4.053 1.922-7.704 4.649-10.769 8.134-1.804 2.026-3.321 4.25-4.544 6.612l-30.975-34.954-3.436-3.873 3.678-4.199c3.388-3.855 9.433-4.906 13.924-2.082l11.508 7.123.169.191 6.813 7.713z"/><path d="m270.8 304.119-.711.829-1.321 1.484c-3.386 3.825-9.431 4.876-13.924 2.082l-17.414-10.904c-.187.109-.342.19-.529.299l-12.361-13.967-4.252-4.794c5.014-1.894 9.496-4.963 13.14-9.074.002-.03.033-.058.065-.086 1.192-1.341 2.271-2.78 3.203-4.287l33.259 37.466z"/><path d="m285.676 257.512c-.523.209-1.076.386-1.624.504l-4.42 1.028-.03-.002-17.993-20.317-8.956-10.096-23.204-26.161-18.587-20.924.002-.03-3.436-3.873s-.029-.002-.027-.032l-.031-.002-11.067-12.477c.922-.336 1.865-.519 2.861-.58l8.027-.511c5.13-.324 10.12 3.191 11.313 8.374l4.603 20.026c2.663.701 5.286 1.579 7.837 2.664l15.87-12.998c4.111-3.391 10.225-3.085 14.083.272l6.023 5.351c3.855 3.388 4.908 9.403 2.082 13.924l-5.485 8.75c-.241 1.008-.659 1.974-1.224 2.873l-3.923 6.258c1.28 2.211 2.434 4.535 3.372 6.936l20.443 2.006c5.289.527 9.406 5.073 9.732 10.173l.51 8.057c.298 4.555-2.464 9.019-6.751 10.807z"/></g></g></g><g><g><path d="m387.632 158.686v251.9c0 12.68-10.27 22.95-22.94 22.95h-121.21c-3.1 0-6.06-.62-8.75-1.73-8.33-3.44-14.19-11.64-14.19-21.22v-251.9c0-9.57 5.86-17.77 14.19-21.21 2.69-1.11 5.65-1.73 8.75-1.73h121.21c12.67 0 22.94 10.27 22.94 22.94z" fill="#334353"/><path d="m387.632 158.686v229.93c-68.72-56.69-112.53-142.51-112.53-238.56 0-4.8.11-9.57.33-14.31h89.26c12.67 0 22.94 10.27 22.94 22.94z" fill="#3e4e60"/><path d="m243.481 151.705v265.86c0 6.22-3.55 11.62-8.75 14.24-8.33-3.44-14.19-11.64-14.19-21.22v-251.9c0-9.57 5.86-17.77 14.19-21.21 5.2 2.62 8.75 8.01 8.75 14.23z" fill="#2e3140"/><g fill="#3f5d77"><circle cx="315.556" cy="413.33" r="15.001"/><path d="m360.338 154.817h-68.674c-5.266 0-9.535-4.269-9.535-9.535 0-5.266 4.269-9.535 9.535-9.535h68.674c5.266 0 9.535 4.269 9.535 9.535 0 5.266-4.269 9.535-9.535 9.535z"/></g></g><g><g><path d="m230.012 195.35v53.94c0 1.737-1.412 3.149-3.149 3.149h-4.228c-5.015 0-9.071-4.057-9.071-9.063v-42.113c0-5.006 4.056-9.071 9.071-9.071h4.228c1.737.001 3.149 1.413 3.149 3.158z" fill="#334353"/><path d="m230.012 195.35v34.163c0 1.746-1.412 3.158-3.149 3.158h-4.228c-5.015 0-9.071-4.065-9.071-9.071v-22.336c0-5.006 4.056-9.071 9.071-9.071h4.228c1.737 0 3.149 1.412 3.149 3.157z" fill="#3e4e60"/></g><g><path d="m381.408 195.35v23.94c0 1.737 1.412 3.149 3.149 3.149h4.228c5.015 0 9.071-4.057 9.071-9.063v-12.113c0-5.006-4.056-9.071-9.071-9.071h-4.228c-1.737.001-3.149 1.413-3.149 3.158z" fill="#334353"/><path d="m381.408 195.35v14.163c0 1.746 1.412 3.158 3.149 3.158h4.228c5.015 0 9.071-4.065 9.071-9.071v-2.336c0-5.006-4.056-9.071-9.071-9.071h-4.228c-1.737 0-3.149 1.412-3.149 3.157z" fill="#3e4e60"/></g><g><path d="m381.408 240.474v23.94c0 1.737 1.412 3.149 3.149 3.149h4.228c5.015 0 9.071-4.057 9.071-9.063v-12.113c0-5.006-4.056-9.071-9.071-9.071h-4.228c-1.737 0-3.149 1.412-3.149 3.158z" fill="#334353"/><path d="m381.408 240.474v14.163c0 1.746 1.412 3.158 3.149 3.158h4.228c5.015 0 9.071-4.065 9.071-9.071v-2.336c0-5.006-4.056-9.071-9.071-9.071h-4.228c-1.737-.001-3.149 1.411-3.149 3.157z" fill="#3e4e60"/></g></g><g><path d="m243.482 164.016h144.15v228.68h-144.15z" fill="#22bce0"/><path d="m387.632 164.016v224.6c-65.38-53.93-108.2-134.22-112.21-224.6z" fill="#4fcae8"/></g><g><path d="m377.634 311.638c-.61-.91-1.45-1.57-2.51-1.97l-28.23-12.1c-.66-.26-1.3-.38-1.9-.38-1.02 0-1.87.31-2.55.95-.69.63-1.03 1.46-1.03 2.47 0 1.32.63 2.26 1.9 2.82l26.86 11.26-26.86 11.26c-1.27.56-1.9 1.5-1.9 2.81 0 1.02.34 1.84 1.03 2.48.68.63 1.53.95 2.55.95.71 0 1.34-.13 1.9-.38l28.23-12.02c1.06-.46 1.9-1.13 2.51-2.02s.91-1.91.91-3.08c-.001-1.12-.301-2.13-.91-3.05zm-41.57 1.72c-.74-.69-1.84-1.03-3.31-1.03h-15.68c-1.47 0-2.57.34-3.3 1.03-.74.68-1.11 1.61-1.11 2.77 0 1.17.37 2.08 1.11 2.74.73.66 1.83.99 3.3.99h15.68c1.47 0 2.57-.33 3.31-.99.73-.66 1.1-1.57 1.1-2.74-.001-1.16-.371-2.09-1.1-2.77zm-20.841-33.64c-.79-.68-1.69-1.02-2.7-1.02-.82 0-1.55.23-2.21.68-.66.46-1.14 1.17-1.45 2.13l-1.79 5.6-15.86 49.72c-.15.46-.23.91-.23 1.37 0 1.06.4 1.94 1.18 2.62.79.69 1.69 1.03 2.7 1.03.81 0 1.55-.23 2.21-.68.66-.46 1.14-1.17 1.45-2.13l13.51-42.34 4.14-12.98c.15-.46.23-.91.23-1.37 0-1.07-.399-1.94-1.18-2.63zm-27.43 46.23-26.86-11.26 26.86-11.26c1.27-.56 1.91-1.5 1.91-2.82 0-1.01-.35-1.84-1.03-2.47-.69-.64-1.54-.95-2.55-.95-.61 0-1.24.12-1.9.38l-28.23 12.1c-1.07.4-1.9 1.06-2.51 1.97-.61.92-.92 1.93-.92 3.05 0 1.17.31 2.19.92 3.08s1.44 1.56 2.51 2.02l28.23 12.02c.56.25 1.19.38 1.9.38 1.01 0 1.86-.32 2.55-.95.68-.64 1.03-1.46 1.03-2.48.001-1.31-.639-2.25-1.91-2.81zm84.75-93.61c-.61-.92-1.44-1.57-2.51-1.98l-28.23-12.1c-.66-.25-1.29-.38-1.9-.38-1.01 0-1.86.32-2.55.95-.68.64-1.03 1.46-1.03 2.47 0 1.32.64 2.26 1.91 2.82l26.86 11.26-26.86 11.26c-1.27.56-1.91 1.5-1.91 2.82 0 1.01.35 1.84 1.03 2.47.69.63 1.54.95 2.55.95.71 0 1.34-.13 1.9-.38l28.23-12.02c1.07-.46 1.9-1.13 2.51-2.02.61-.88.92-1.91.92-3.08.001-1.11-.31-2.13-.92-3.04zm-45.839 1.71c-.74-.69-1.84-1.03-3.31-1.03h-15.67c-1.48 0-2.58.34-3.31 1.03-.74.68-1.11 1.61-1.11 2.78 0 1.16.37 2.08 1.11 2.74.73.66 1.83.98 3.31.98h15.67c1.47 0 2.57-.32 3.31-.98.73-.66 1.1-1.58 1.1-2.74-.001-1.17-.37-2.1-1.1-2.78zm-33.82 12.59-2.77-1.16-24.09-10.1 18.86-7.91 8-3.35c1.27-.56 1.9-1.5 1.9-2.82 0-1.01-.34-1.83-1.03-2.47-.68-.63-1.53-.95-2.54-.95-.61 0-1.25.13-1.91.38l-6.05 2.59-22.18 9.51c-1.06.41-1.9 1.06-2.51 1.98-.61.91-.91 1.93-.91 3.04 0 1.17.3 2.2.91 3.08.61.89 1.45 1.56 2.51 2.02l28.23 12.02c.56.25 1.19.38 1.91.38.48 0 .93-.07 1.33-.22.45-.16.85-.4 1.21-.73.69-.63 1.03-1.46 1.03-2.47-.001-1.32-.631-2.26-1.9-2.82z" fill="#2e3140"/><g fill="#3f5d77"><path d="m294.783 249.458c0 1.01-.34 1.84-1.03 2.47-.36.33-.76.57-1.21.73-.84-2.38-1.65-4.77-2.43-7.18l2.77 1.16c1.27.56 1.9 1.5 1.9 2.82z"/><path d="m293.754 218.828c.69.64 1.03 1.46 1.03 2.47 0 1.32-.63 2.26-1.9 2.82l-8 3.35c-.57-2.2-1.11-4.4-1.63-6.62l6.05-2.59c.66-.25 1.3-.38 1.91-.38 1.009 0 1.86.32 2.54.95z"/><path d="m315.223 279.718c.78.69 1.18 1.56 1.18 2.63 0 .46-.08.91-.23 1.37l-4.14 12.98c-1.71-3.16-3.36-6.36-4.96-9.59l1.79-5.6c.31-.96.79-1.67 1.45-2.13.66-.45 1.39-.68 2.21-.68 1.01 0 1.911.34 2.7 1.02z"/><path d="m307.723 240.548c-1.48 0-2.58-.32-3.31-.98-.74-.66-1.11-1.58-1.11-2.74 0-1.17.37-2.1 1.11-2.78.73-.69 1.83-1.03 3.31-1.03h15.67c1.47 0 2.57.34 3.31 1.03.73.68 1.1 1.61 1.1 2.78 0 1.16-.37 2.08-1.1 2.74-.74.66-1.84.98-3.31.98z"/><path d="m336.064 313.358c.73.68 1.1 1.61 1.1 2.77 0 1.17-.37 2.08-1.1 2.74-.74.66-1.84.99-3.31.99h-6.87c-1.65-2.48-3.25-5-4.8-7.53h11.67c1.469 0 2.57.34 3.31 1.03z"/><path d="m341.803 252.498c-.56.25-1.19.38-1.9.38-1.01 0-1.86-.32-2.55-.95-.68-.63-1.03-1.46-1.03-2.47 0-1.32.64-2.26 1.91-2.82l26.86-11.26-26.86-11.26c-1.27-.56-1.91-1.5-1.91-2.82 0-1.01.35-1.83 1.03-2.47.69-.63 1.54-.95 2.55-.95.61 0 1.24.13 1.9.38l28.23 12.1c1.07.41 1.9 1.06 2.51 1.98.61.91.92 1.93.92 3.04 0 1.17-.31 2.2-.92 3.08-.61.89-1.44 1.56-2.51 2.02z"/><path d="m378.543 314.688c0 1.17-.3 2.19-.91 3.08s-1.45 1.56-2.51 2.02l-28.23 12.02c-.56.25-1.19.38-1.9.38-1.02 0-1.87-.32-2.55-.95-.69-.64-1.03-1.46-1.03-2.48 0-1.31.63-2.25 1.9-2.81l26.86-11.26-26.86-11.26c-1.27-.56-1.9-1.5-1.9-2.82 0-1.01.34-1.84 1.03-2.47.68-.64 1.53-.95 2.55-.95.6 0 1.24.12 1.9.38l28.23 12.1c1.06.4 1.9 1.06 2.51 1.97.61.92.91 1.93.91 3.05z"/></g></g></g></g></svg>